PathFileType	4	(X/Y/Z)	RBDS016static.trc
DataRate	CameraRate	NumFrames	NumMarkers	Units	OrigDataRate	OrigDataStartFrame	OrigNumFrames
150.000000	150.000000	4	48	mm	150.000000	18	150
Frame#	Time	L.Ankle			L.Ankle.Medial			L.ASIS			L.GTR			L.Heel.Bottom			L.Heel.Lateral			L.Heel.Top			L.HF			L.Iliac.Crest			L.Knee			L.Knee.Medial			L.MT1			L.MT2			L.MT5			L.PSIS			L.Shank.Bottom.Lateral			L.Shank.Bottom.Medial			L.Shank.Top.Lateral			L.Shank.Top.Medial			L.Thigh.Bottom.Lateral			L.Thigh.Bottom.Medial			L.Thigh.Top.Lateral			L.Thigh.Top.Medial			L.TT			R.Ankle			R.Ankle.Medial			R.ASIS			R.GTR			R.Heel.Bottom			R.Heel.Lateral			R.Heel.Top			R.HF			R.Iliac.Crest			R.Knee			R.Knee.Medial			R.MT1			R.MT2			R.MT5			R.PSIS			R.Shank.Bottom.Lateral			R.Shank.Bottom.Medial			R.Shank.Top.Lateral			R.Shank.Top.Medial			R.Thigh.Bottom.Lateral			R.Thigh.Bottom.Medial			R.Thigh.Top.Lateral			R.Thigh.Top.Medial			R.TT			
		X1	Y1	Z1	X2	Y2	Z2	X3	Y3	Z3	X4	Y4	Z4	X5	Y5	Z5	X6	Y6	Z6	X7	Y7	Z7	X8	Y8	Z8	X9	Y9	Z9	X10	Y10	Z10	X11	Y11	Z11	X12	Y12	Z12	X13	Y13	Z13	X14	Y14	Z14	X15	Y15	Z15	X16	Y16	Z16	X17	Y17	Z17	X18	Y18	Z18	X19	Y19	Z19	X20	Y20	Z20	X21	Y21	Z21	X22	Y22	Z22	X23	Y23	Z23	X24	Y24	Z24	X25	Y25	Z25	X26	Y26	Z26	X27	Y27	Z27	X28	Y28	Z28	X29	Y29	Z29	X30	Y30	Z30	X31	Y31	Z31	X32	Y32	Z32	X33	Y33	Z33	X34	Y34	Z34	X35	Y35	Z35	X36	Y36	Z36	X37	Y37	Z37	X38	Y38	Z38	X39	Y39	Z39	X40	Y40	Z40	X41	Y41	Z41	X42	Y42	Z42	X43	Y43	Z43	X44	Y44	Z44	X45	Y45	Z45	X46	Y46	Z46	X47	Y47	Z47	X48	Y48	Z48	

19	0.12	722.7651977539063	98.28635406494141	1044.997314453125	732.143798828125	111.1669158935547	1131.887084960938	861.72607421875	945.6983032226563	1122.295532226563	785.3942260742188	882.385009765625	1050.766723632813	645.001708984375	40.40842056274414	1088.080200195313	669.0384521484375	62.25534439086914	1047.208862304688	654.3527221679688	88.00995635986328	1088.924194335938	755.3314208984375	444.4959106445313	1025.274291992188	776.5444946289063	1008.003295898438	1061.204223632813	758.92138671875	503.8229064941406	1030.174926757813	732.9896850585938	481.4613037109375	1161.716918945313	861.16357421875	60.57848358154297	1127.365234375	865.5571899414063	70.33158111572266	1088.982055664063	828.087646484375	52.84050369262695	1021.735290527344	664.97705078125	967.0084228515625	1179.391235351563	702.9600830078125	174.9199676513672	1038.9501953125	674.8917236328125	178.9264221191406	1086.794555664063	696.1069946289063	254.7174224853516	1028.888793945313	670.3480224609375	259.263916015625	1076.365600585938	747.94287109375	586.7626953125	1026.759765625	686.1502685546875	592.9445190429688	1065.652709960938	756.9567260742188	696.353759765625	1025.702026367188	698.5568237304688	701.8281860351563	1064.434936523438	803.55419921875	428.2898559570313	1089.200561523438	714.69970703125	101.2397994995117	1410.591796875	737.7807006835938	122.4165878295898	1325.495849609375	845.5289916992188	949.648193359375	1354.264892578125	766.0455322265625	888.0933837890625	1415.800659179688	639.94873046875	41.53659439086914	1366.070068359375	668.801513671875	65.01729583740234	1406.327026367188	652.2616577148438	92.33319091796875	1363.244140625	743.0927734375	450.7028198242188	1427.349365234375	760.5093383789063	1003.4169921875	1399.400756835938	743.4177856445313	513.5068969726563	1421.372192382813	731.8192749023438	485.4260559082031	1292.278198242188	855.4434814453125	61.27544784545898	1329.197509765625	862.6015625	70.75759887695313	1371.632202148438	824.764404296875	48.64932250976563	1438.87255859375	659.2537841796875	966.8982543945313	1280.994506835938	711.1146850585938	170.8545227050781	1419.33740234375	671.1561279296875	176.2996063232422	1387.342529296875	708.1053466796875	254.7470245361328	1434.502807617188	666.9871215820313	256.1218872070313	1400.404663085938	728.4500122070313	598.3572387695313	1429.386474609375	673.9191284179688	599.5726318359375	1380.658813476563	725.58544921875	709.0567016601563	1431.777465820313	675.7853393554688	709.49169921875	1384.599365234375	792.9452514648438	422.9374084472656	1372.940185546875	
20	0.1266666666666667	722.7598876953125	98.28836059570313	1044.990600585938	732.1392822265625	111.17236328125	1131.88525390625	861.6485595703125	945.693359375	1122.284423828125	785.3191528320313	882.4073486328125	1050.774780273438	644.9932250976563	40.40296936035156	1088.082153320313	669.038330078125	62.25459671020508	1047.211059570313	654.3513793945313	87.99832916259766	1088.921508789063	755.2352294921875	444.5043334960938	1025.286865234375	776.4909057617188	1008.033935546875	1061.216796875	758.8109130859375	503.8532409667969	1030.177368164063	732.900634765625	481.4666137695313	1161.734619140625	861.16650390625	60.57888412475586	1127.376831054688	865.5565185546875	70.33230590820313	1088.98388671875	828.0870361328125	52.84241104125977	1021.743713378906	664.9246215820313	967.063232421875	1179.422119140625	702.9204711914063	174.9240570068359	1038.94580078125	674.8556518554688	178.9146728515625	1086.808959960938	696.0590209960938	254.7130126953125	1028.897216796875	670.2955932617188	259.2471923828125	1076.377807617188	747.8089599609375	586.7611083984375	1026.790893554688	686.0616455078125	592.9558715820313	1065.69921875	756.8214111328125	696.3710327148438	1025.713989257813	698.4572143554688	701.8351440429688	1064.459106445313	803.459228515625	428.3690795898438	1089.233520507813	714.6971435546875	101.2521209716797	1410.605712890625	737.7876586914063	122.4212265014648	1325.498901367188	845.4954223632813	949.615966796875	1354.271728515625	766.0128173828125	888.0769653320313	1415.844360351563	639.947998046875	41.52820587158203	1366.076171875	668.795654296875	65.01488494873047	1406.333984375	652.261962890625	92.33069610595703	1363.242919921875	743.0562133789063	450.6963806152344	1427.355102539063	760.4874877929688	1003.402282714844	1399.449340820313	743.3655395507813	513.4986572265625	1421.391235351563	731.7695922851563	485.3943786621094	1292.292114257813	855.4393920898438	61.27243804931641	1329.199584960938	862.5980834960938	70.75422668457031	1371.629760742188	824.7656860351563	48.65285873413086	1438.874267578125	659.2177124023438	966.9442138671875	1281.026977539063	711.107177734375	170.8422698974609	1419.343017578125	671.1416015625	176.2869415283203	1387.354370117188	708.0831298828125	254.7383422851563	1434.511840820313	666.958251953125	256.1085205078125	1400.413330078125	728.3859252929688	598.3400268554688	1429.413452148438	673.8480834960938	599.5667114257813	1380.6826171875	725.5178833007813	709.0394287109375	1431.79150390625	675.7283325195313	709.49169921875	1384.61279296875	792.8991088867188	422.9304504394531	1372.948852539063	
21	0.1333333333333333	722.754150390625	98.28986358642578	1044.992309570313	732.1376953125	111.1623687744141	1131.890747070313	861.5697631835938	945.6859130859375	1122.277221679688	785.2089233398438	882.4276123046875	1050.778076171875	644.9956665039063	40.40460205078125	1088.079345703125	669.0283203125	62.25584030151367	1047.210205078125	654.3416748046875	87.99746704101563	1088.935424804688	755.1394653320313	444.51904296875	1025.299926757813	776.4393920898438	1008.055053710938	1061.229736328125	758.7131958007813	503.8772583007813	1030.188842773438	732.78515625	481.4836730957031	1161.754028320313	861.1589965820313	60.58463287353516	1127.368286132813	865.5506591796875	70.34456634521484	1088.983520507813	828.0845947265625	52.83962631225586	1021.735961914063	664.8828125	967.1132202148438	1179.457885742188	702.8849487304688	174.9244689941406	1038.9541015625	674.828857421875	178.9129791259766	1086.816284179688	695.9902954101563	254.7141723632813	1028.912231445313	670.2310180664063	259.2362670898438	1076.39599609375	747.684326171875	586.7784423828125	1026.807250976563	685.9649047851563	592.9576416015625	1065.741821289063	756.6795654296875	696.3871459960938	1025.730712890625	698.3418579101563	701.85400390625	1064.477172851563	803.36181640625	428.4335021972656	1089.272705078125	714.6981811523438	101.2358932495117	1410.592529296875	737.7144165039063	122.3302993774414	1325.37158203125	845.4547119140625	949.5895385742188	1354.272216796875	765.9698486328125	888.0801391601563	1415.883544921875	639.9453735351563	41.52672958374023	1366.073120117188	668.8028564453125	65.01517486572266	1406.331420898438	652.2578735351563	92.33203887939453	1363.233642578125	743.0010986328125	450.6863708496094	1427.368896484375	760.468994140625	1003.396362304688	1399.48046875	743.3011474609375	513.4894409179688	1421.406860351563	731.7125244140625	485.3878173828125	1292.31396484375	855.4295654296875	61.2799072265625	1329.197509765625	862.5882568359375	70.75234222412109	1371.626586914063	824.760986328125	48.64511871337891	1438.876586914063	659.1749267578125	966.9905395507813	1281.049682617188	711.09033203125	170.8391265869141	1419.346923828125	671.1265258789063	176.2830505371094	1387.369262695313	708.0559692382813	254.7322082519531	1434.523071289063	666.9332275390625	256.0990295410156	1400.423095703125	728.3147583007813	598.3383178710938	1429.429443359375	673.767333984375	599.5634155273438	1380.716430664063	725.4562377929688	709.0386352539063	1431.812255859375	675.6683349609375	709.48095703125	1384.635986328125	792.8490600585938	422.9330749511719	1372.970458984375	
22	0.14	722.7608642578125	98.28229522705078	1044.992065429688	732.1211547851563	111.156135559082	1131.887451171875	861.4976806640625	945.677001953125	1122.271728515625	785.0991821289063	882.4415893554688	1050.805419921875	644.9939575195313	40.39089965820313	1088.080322265625	669.0309448242188	62.24966812133789	1047.213134765625	654.3407592773438	87.98167419433594	1088.927368164063	755.0488891601563	444.5427551269531	1025.300170898438	776.3836669921875	1008.082824707031	1061.24560546875	758.6153564453125	503.9044494628906	1030.182861328125	732.6670532226563	481.4972839355469	1161.761596679688	861.1557006835938	60.58774566650391	1127.372802734375	865.5474243164063	70.33844757080078	1088.977294921875	828.0798950195313	52.84161376953125	1021.739685058594	664.8336181640625	967.1649169921875	1179.50439453125	702.8543090820313	174.9194946289063	1038.962524414063	674.7916259765625	178.9006958007813	1086.848510742188	695.9146728515625	254.7130126953125	1028.91943359375	670.1683349609375	259.2236633300781	1076.415161132813	747.54443359375	586.7933959960938	1026.8427734375	685.8675537109375	592.9656372070313	1065.776489257813	756.5652465820313	696.3978881835938	1025.733642578125	698.232177734375	701.8561401367188	1064.499633789063	803.2489013671875	428.4779968261719	1089.305908203125	714.6810913085938	101.2348937988281	1410.607666015625	737.7598876953125	122.4301223754883	1325.51416015625	845.4196166992188	949.5612182617188	1354.2626953125	765.9290161132813	888.0874633789063	1415.920776367188	639.9405517578125	41.53514099121094	1366.071411132813	668.8009643554688	64.99707794189453	1406.335815429688	652.2529907226563	92.33454132080078	1363.239379882813	742.9522094726563	450.6867370605469	1427.392578125	760.4527587890625	1003.378234863281	1399.512084960938	743.252197265625	513.4920043945313	1421.4306640625	731.6687622070313	485.3681945800781	1292.341552734375	855.4266357421875	61.28203964233398	1329.200073242188	862.5845947265625	70.76453399658203	1371.636474609375	824.7557373046875	48.64854431152344	1438.874877929688	659.1344604492188	967.046630859375	1281.097900390625	711.078857421875	170.8326873779297	1419.353637695313	671.1080932617188	176.2713470458984	1387.382568359375	708.0272216796875	254.7229461669922	1434.539794921875	666.9076538085938	256.0793762207031	1400.445556640625	728.2495727539063	598.3386840820313	1429.445556640625	673.6968994140625	599.5535278320313	1380.7451171875	725.397216796875	709.033935546875	1431.821533203125	675.5977172851563	709.4756469726563	1384.648681640625	792.8021240234375	422.9362182617188	1372.99072265625	
